{
    "asset" : {
        "generator" : "Khronos glTF Blender I/O v1.1.46",
        "version" : "2.0"
    },
    "scene" : 0,
    "scenes" : [
        {
            "extras" : {
                "glTF2ExportSettings" : {
                    "export_animations" : 0,
                    "export_cameras" : 0,
                    "export_extras" : 1,
                    "export_format" : "GLTF_EMBEDDED",
                    "export_lights" : 0,
                    "export_morph" : 0,
                    "export_selected" : 1,
                    "export_skins" : 0
                }
            },
            "name" : "Scene",
            "nodes" : [
                0
            ]
        }
    ],
    "nodes" : [
        {
            "mesh" : 0,
            "name" : "Circle.004",
            "scale" : [
                9.999998092651367,
                10,
                10
            ],
            "translation" : [
                0,
                3.2603068351745605,
                0.0007830000249668956
            ]
        }
    ],
    "materials" : [
        {
            "doubleSided" : true,
            "name" : "Holz",
            "pbrMetallicRoughness" : {}
        },
        {
            "doubleSided" : true,
            "name" : "STAHL",
            "pbrMetallicRoughness" : {}
        }
    ],
    "meshes" : [
        {
            "name" : "Circle.004",
            "primitives" : [
                {
                    "attributes" : {
                        "POSITION" : 0,
                        "NORMAL" : 1,
                        "TEXCOORD_0" : 2
                    },
                    "indices" : 3,
                    "material" : 0
                },
                {
                    "attributes" : {
                        "POSITION" : 4,
                        "NORMAL" : 5,
                        "TEXCOORD_0" : 6
                    },
                    "indices" : 7,
                    "material" : 1
                }
            ]
        }
    ],
    "accessors" : [
        {
            "bufferView" : 0,
            "componentType" : 5126,
            "count" : 1320,
            "max" : [
                1.2062960863113403,
                2.4202566146850586,
                1.2086832523345947
            ],
            "min" : [
                -1.2371529340744019,
                -0.30319535732269287,
                -1.2199739217758179
            ],
            "type" : "VEC3"
        },
        {
            "bufferView" : 1,
            "componentType" : 5126,
            "count" : 1320,
            "type" : "VEC3"
        },
        {
            "bufferView" : 2,
            "componentType" : 5126,
            "count" : 1320,
            "type" : "VEC2"
        },
        {
            "bufferView" : 3,
            "componentType" : 5123,
            "count" : 3708,
            "type" : "SCALAR"
        },
        {
            "bufferView" : 4,
            "componentType" : 5126,
            "count" : 96,
            "max" : [
                1.1110376119613647,
                2.1108040809631348,
                1.1166173219680786
            ],
            "min" : [
                -1.1383813619613647,
                0.06408888101577759,
                -1.1328016519546509
            ],
            "type" : "VEC3"
        },
        {
            "bufferView" : 5,
            "componentType" : 5126,
            "count" : 96,
            "type" : "VEC3"
        },
        {
            "bufferView" : 6,
            "componentType" : 5126,
            "count" : 96,
            "type" : "VEC2"
        },
        {
            "bufferView" : 7,
            "componentType" : 5123,
            "count" : 576,
            "type" : "SCALAR"
        }
    ],
    "bufferViews" : [
        {
            "buffer" : 0,
            "byteLength" : 15840,
            "byteOffset" : 0
        },
        {
            "buffer" : 0,
            "byteLength" : 15840,
            "byteOffset" : 15840
        },
        {
            "buffer" : 0,
            "byteLength" : 10560,
            "byteOffset" : 31680
        },
        {
            "buffer" : 0,
            "byteLength" : 7416,
            "byteOffset" : 42240
        },
        {
            "buffer" : 0,
            "byteLength" : 1152,
            "byteOffset" : 49656
        },
        {
            "buffer" : 0,
            "byteLength" : 1152,
            "byteOffset" : 50808
        },
        {
            "buffer" : 0,
            "byteLength" : 768,
            "byteOffset" : 51960
        },
        {
            "buffer" : 0,
            "byteLength" : 1152,
            "byteOffset" : 52728
        }
    ],
    "buffers" : [
        {
            "byteLength" : 53880,
            "uri" : "data:application/octet-stream;base64,"
        }
    ]
}
