{
    "asset" : {
        "generator" : "Khronos glTF Blender I/O v1.3.48",
        "version" : "2.0"
    },
    "scene" : 0,
    "scenes" : [
        {
            "name" : "Scene",
            "nodes" : [
                0
            ]
        }
    ],
    "nodes" : [
        {
            "mesh" : 0,
            "name" : "DRT.001",
            "rotation" : [
                0.7071068286895752,
                0,
                0,
                0.7071068286895752
            ],
            "translation" : [
                -1.0889791250228882,
                -0.4414547085762024,
                0
            ]
        }
    ],
    "materials" : [
        {
            "doubleSided" : true,
            "name" : "White",
            "pbrMetallicRoughness" : {}
        },
        {
            "doubleSided" : true,
            "name" : "White.001",
            "pbrMetallicRoughness" : {}
        }
    ],
    "meshes" : [
        {
            "name" : "Mesh.001",
            "primitives" : [
                {
                    "attributes" : {
                        "POSITION" : 0,
                        "NORMAL" : 1
                    },
                    "indices" : 2,
                    "material" : 0
                },
                {
                    "attributes" : {
                        "POSITION" : 3,
                        "NORMAL" : 4
                    },
                    "indices" : 5,
                    "material" : 1
                }
            ]
        }
    ],
    "accessors" : [
        {
            "bufferView" : 0,
            "componentType" : 5126,
            "count" : 16912,
            "max" : [
                2.240767002105713,
                0.10900000482797623,
                0.02647114358842373
            ],
            "min" : [
                -0.012535078451037407,
                -0.10900000482797623,
                -0.29230183362960815
            ],
            "type" : "VEC3"
        },
        {
            "bufferView" : 1,
            "componentType" : 5126,
            "count" : 16912,
            "type" : "VEC3"
        },
        {
            "bufferView" : 2,
            "componentType" : 5123,
            "count" : 38676,
            "type" : "SCALAR"
        },
        {
            "bufferView" : 3,
            "componentType" : 5126,
            "count" : 6987,
            "max" : [
                2.309720516204834,
                0.11573351174592972,
                -0.32108741998672485
            ],
            "min" : [
                -0.038614556193351746,
                -0.10226649791002274,
                -0.9785891771316528
            ],
            "type" : "VEC3"
        },
        {
            "bufferView" : 4,
            "componentType" : 5126,
            "count" : 6987,
            "type" : "VEC3"
        },
        {
            "bufferView" : 5,
            "componentType" : 5123,
            "count" : 16716,
            "type" : "SCALAR"
        }
    ],
    "bufferViews" : [
        {
            "buffer" : 0,
            "byteLength" : 202944,
            "byteOffset" : 0
        },
        {
            "buffer" : 0,
            "byteLength" : 202944,
            "byteOffset" : 202944
        },
        {
            "buffer" : 0,
            "byteLength" : 77352,
            "byteOffset" : 405888
        },
        {
            "buffer" : 0,
            "byteLength" : 83844,
            "byteOffset" : 483240
        },
        {
            "buffer" : 0,
            "byteLength" : 83844,
            "byteOffset" : 567084
        },
        {
            "buffer" : 0,
            "byteLength" : 33432,
            "byteOffset" : 650928
        }
    ],
    "buffers" : [
        {
            "byteLength" : 684360,
            "uri" : "data:application/octet-stream;base64,"
        }
    ]
}
